<svg width="32" height="32" viewBox="0 0 32 32" fill="none" xmlns="http://www.w3.org/2000/svg">
<path fill-rule="evenodd" clip-rule="evenodd" d="M6.77205 6.75866C11.8321 1.70533 20.0587 1.75866 25.1494 6.85066C30.2427 11.944 30.2961 20.1747 25.2347 25.2347C20.1747 30.2947 11.9441 30.2427 6.85072 25.1493C5.41805 23.7226 4.33558 21.9832 3.68829 20.0677C3.04099 18.1521 2.84649 16.1127 3.12005 14.1093C3.15595 13.8464 3.29481 13.6085 3.5061 13.448C3.71739 13.2875 3.9838 13.2174 4.24672 13.2533C4.50964 13.2892 4.74753 13.4281 4.90806 13.6394C5.06859 13.8507 5.13861 14.1171 5.10272 14.38C4.87051 16.0777 5.03513 17.8062 5.58366 19.4296C6.13219 21.053 7.04969 22.527 8.26405 23.736C12.5907 28.0613 19.5547 28.0867 23.8214 23.8213C28.0867 19.5547 28.0614 12.5907 23.7361 8.264C19.4121 3.94133 12.4521 3.91333 8.18539 8.17333L9.18272 8.17733C9.31404 8.17794 9.44396 8.20442 9.56505 8.25524C9.68614 8.30606 9.79603 8.38023 9.88846 8.47353C9.98089 8.56682 10.054 8.6774 10.1037 8.79896C10.1534 8.92052 10.1787 9.05068 10.1781 9.182C10.1774 9.31332 10.151 9.44324 10.1001 9.56433C10.0493 9.68542 9.97515 9.79531 9.88186 9.88774C9.78857 9.98016 9.67798 10.0533 9.55642 10.103C9.43486 10.1527 9.30471 10.1779 9.17339 10.1773L5.77872 10.1613C5.51512 10.1599 5.26274 10.0545 5.07647 9.86798C4.89019 9.68146 4.7851 9.42893 4.78405 9.16533L4.76672 5.77333C4.76602 5.64201 4.79119 5.51184 4.8408 5.39024C4.89041 5.26865 4.96348 5.15802 5.05584 5.06466C5.14821 4.97131 5.25805 4.89706 5.37911 4.84616C5.50017 4.79526 5.63007 4.7687 5.76139 4.768C5.89271 4.7673 6.02288 4.79247 6.14448 4.84208C6.26607 4.89169 6.3767 4.96476 6.47006 5.05712C6.56341 5.14948 6.63766 5.25933 6.68856 5.38039C6.73946 5.50144 6.76602 5.63134 6.76672 5.76266L6.77205 6.76V6.75866ZM15.9987 9.66533C16.2639 9.66533 16.5183 9.77069 16.7058 9.95822C16.8934 10.1458 16.9987 10.4001 16.9987 10.6653V15.5853L20.0401 18.6253C20.1356 18.7175 20.2118 18.8278 20.2643 18.9498C20.3168 19.0718 20.3444 19.203 20.3456 19.3358C20.3468 19.4686 20.3216 19.6003 20.2714 19.7232C20.2212 19.8461 20.147 19.9578 20.0531 20.0517C19.9593 20.1457 19.8477 20.22 19.7248 20.2703C19.6019 20.3206 19.4702 20.346 19.3375 20.3449C19.2047 20.3438 19.0734 20.3163 18.9514 20.2639C18.8294 20.2116 18.719 20.1355 18.6267 20.04L15.0001 16.4133V10.6667C15.0001 10.4014 15.1054 10.1471 15.2929 9.95956C15.4805 9.77202 15.7348 9.66667 16.0001 9.66667L15.9987 9.66533Z" fill="white"/>
</svg>
