<svg width="32" height="32" viewBox="0 0 32 32" fill="none" xmlns="http://www.w3.org/2000/svg">
<path d="M15 16H9C8.20435 16 7.44129 16.3161 6.87868 16.8787C6.31607 17.4413 6 18.2044 6 19V21H8V19C8 18.7348 8.10536 18.4804 8.29289 18.2929C8.48043 18.1054 8.73478 18 9 18H15C15.2652 18 15.5196 18.1054 15.7071 18.2929C15.8946 18.4804 16 18.7348 16 19V21H18V19C18 18.2044 17.6839 17.4413 17.1213 16.8787C16.5587 16.3161 15.7956 16 15 16ZM12 15C12.7911 15 13.5645 14.7654 14.2223 14.3259C14.8801 13.8864 15.3928 13.2616 15.6955 12.5307C15.9983 11.7998 16.0775 10.9956 15.9231 10.2196C15.7688 9.44372 15.3878 8.73098 14.8284 8.17157C14.269 7.61216 13.5563 7.2312 12.7804 7.07686C12.0044 6.92252 11.2002 7.00173 10.4693 7.30448C9.73836 7.60723 9.11365 8.11993 8.67412 8.77772C8.2346 9.43552 8 10.2089 8 11C8 12.0609 8.42143 13.0783 9.17157 13.8284C9.92172 14.5786 10.9391 15 12 15ZM12 9C12.3956 9 12.7822 9.1173 13.1111 9.33706C13.44 9.55683 13.6964 9.86918 13.8478 10.2346C13.9991 10.6001 14.0387 11.0022 13.9616 11.3902C13.8844 11.7781 13.6939 12.1345 13.4142 12.4142C13.1345 12.6939 12.7781 12.8844 12.3902 12.9616C12.0022 13.0387 11.6001 12.9991 11.2346 12.8478C10.8692 12.6964 10.5568 12.44 10.3371 12.1111C10.1173 11.7822 10 11.3956 10 11C10 10.4696 10.2107 9.96086 10.5858 9.58579C10.9609 9.21072 11.4696 9 12 9Z" fill="white"/>
<path d="M28 19V28H4V8H16V6H4C3.46957 6 2.96086 6.21071 2.58579 6.58579C2.21071 6.96086 2 7.46957 2 8V28C2 28.5304 2.21071 29.0391 2.58579 29.4142C2.96086 29.7893 3.46957 30 4 30H28C28.5304 30 29.0391 29.7893 29.4142 29.4142C29.7893 29.0391 30 28.5304 30 28V19H28Z" fill="white"/>
<path d="M20 19H26V21H20V19ZM22 23H26V25H22V23ZM32 10V8H29.899C29.77 7.37402 29.5215 6.77881 29.167 6.247L30.657 4.757L29.243 3.343L27.753 4.833C27.2212 4.47851 26.626 4.22997 26 4.101V2H24V4.101C23.374 4.22997 22.7788 4.47851 22.247 4.833L20.757 3.343L19.343 4.757L20.833 6.247C20.4785 6.77881 20.23 7.37402 20.101 8H18V10H20.101C20.23 10.626 20.4785 11.2212 20.833 11.753L19.343 13.243L20.757 14.657L22.247 13.167C22.7788 13.5215 23.374 13.77 24 13.899V16H26V13.899C26.626 13.77 27.2212 13.5215 27.753 13.167L29.243 14.657L30.657 13.243L29.167 11.753C29.5215 11.2212 29.77 10.626 29.899 10H32ZM25 12C24.4067 12 23.8266 11.8241 23.3333 11.4944C22.8399 11.1648 22.4554 10.6962 22.2284 10.1481C22.0013 9.59987 21.9419 8.99667 22.0576 8.41473C22.1734 7.83279 22.4591 7.29824 22.8787 6.87868C23.2982 6.45912 23.8328 6.1734 24.4147 6.05764C24.9967 5.94189 25.5999 6.0013 26.1481 6.22836C26.6962 6.45542 27.1648 6.83994 27.4944 7.33329C27.8241 7.82664 28 8.40666 28 9C27.9992 9.79541 27.6829 10.558 27.1204 11.1204C26.558 11.6829 25.7954 11.9992 25 12Z" fill="white"/>
</svg>
