<svg width="22" height="21" viewBox="0 0 22 21" fill="none" xmlns="http://www.w3.org/2000/svg">
<path d="M9.26667 16.1749L16.8 10.4632L14.8667 8.99731L9.23334 13.2685L6.43334 11.1455L4.53334 12.5861L9.26667 16.1749ZM2.66667 20.2187C1.93334 20.2187 1.30534 20.0205 0.782669 19.6242C0.260002 19.228 -0.000886625 18.7521 2.26373e-06 18.1968V2.02187C2.26373e-06 1.46585 0.261335 0.989705 0.784002 0.593419C1.30667 0.197134 1.93422 -0.000672239 2.66667 1.71636e-06H13.3333L21.3333 6.0656V18.1968C21.3333 18.7528 21.072 19.229 20.5493 19.6252C20.0267 20.0215 19.3991 20.2193 18.6667 20.2187H2.66667ZM12 7.07653V2.02187H2.66667V18.1968H18.6667V7.07653H12Z" fill="white"/>
</svg>
